<svg width="620" height="555" viewBox="0 0 620 555" fill="none" xmlns="http://www.w3.org/2000/svg">
<path d="M116 63.9999C143.963 54.8859 169.503 41.3705 196 28.9999C191.539 3.98842 157.582 -5.24568 137 4.32402C113.649 15.1811 107.311 41.4436 116 63.9999Z" fill="#0A0B0B"/>
<path d="M158 0C159.248 0.6848 159.548 0.7488 161 1C159.752 0.3152 159.452 0.2512 158 0ZM145 1L146 2L145 1ZM165.667 1.3333C165.222 1.7778 166.278 1.7223 166.333 1.6667C166.778 1.222 165.722 1.2778 165.667 1.3333ZM141 2L142 3L141 2ZM169 2L170 3L169 2ZM136 4L137 5L136 4ZM174 4L175 5L174 4ZM176 5L177 6L176 5ZM131 7L132 8L131 7ZM179 7L180 8L179 7ZM181 8L182 9L181 8ZM182 9L183 10L182 9ZM127 10L128 11L127 10ZM278 10C258.953 21.7119 248.073 41.6713 255.36 64C257.599 70.862 261.278 77.839 268 81C264.874 94.128 271.024 108.833 286 109C286.025 117.759 289.13 124.984 298 128C294.423 123.861 285.982 117.727 287.788 111.209C288.433 108.878 290.938 107.683 292.262 105.792C293.733 103.692 293.865 101.462 294 99C289.861 100.474 287.638 106.33 283.79 107.006C281.47 107.414 278.782 105.653 277.015 104.362C269.574 98.923 269 91.432 269 83C271.631 83.488 274.308 84.119 277 83.772C279.094 83.503 281.152 82.721 282.957 81.633C292.237 76.034 287.579 61.652 277.04 67.318C274.658 68.599 272.874 70.738 271.483 73.013C270.108 75.262 269.461 77.447 269 80C252.018 68.509 251.001 41.6401 262.458 26C265.76 21.493 269.426 17.9211 273.995 14.7222C275.959 13.3479 278.425 12.4124 278 10ZM206 21C202.962 23.5884 199.989 26.2615 196 27C189.551 33.6512 179.207 37.1539 171 41.2469C157.738 47.8607 143.839 53.16 130 58.424C119.792 62.307 109.916 66.613 99 68C103.01 64.023 106.867 60.442 112 58C108.773 48.3101 87.38 63.483 93.608 71.772C96.169 75.18 100.281 74.886 104 74.194C111.157 72.863 118.15 70.746 125 68.308C146.915 60.508 168.236 51.2012 189 40.7523C197.754 36.347 210.069 30.6317 215.392 21.9992C217.639 18.3552 216.126 14.5642 211.981 13.4375C207.466 12.2104 196.313 14.5849 194.137 19.1697C190.691 26.4281 203.683 21.5487 206 21ZM122 15L123 16L122 15ZM121 16L122 17L121 16ZM190 17L191 18L190 17ZM191 18L192 19L191 18ZM395 19C392.407 25.6827 388.66 32.0123 387 39C391.785 33.7006 394.303 25.5743 397 19H395ZM118 20L119 21L118 20ZM130.333 20.6667C130.278 20.7224 130.222 21.7776 130.667 21.3333C130.722 21.2779 130.778 20.2222 130.333 20.6667Z" fill="#EDA92C"/>
<path d="M195 24L197 28C200.486 26.0565 203.454 24.0817 206 21C202.187 21.571 198.705 22.9892 195 24Z" fill="#FEFEFF"/>
<path d="M126 22C126.899 24.1235 126.876 24.1007 129 25C128.028 23.7302 127.27 22.9725 126 22ZM116 24L117 25L116 24ZM195 25L196 26L195 25ZM115 26L116 27L115 26ZM114 28L115 29L114 28ZM131 28L132 29L131 28ZM113 31L114 32L113 31ZM420 31C414.187 37.3105 407.301 43.5598 403 51C408.72 47.7244 419.593 37.8951 420 31ZM112.333 34.6667C112.278 34.7224 112.222 35.7776 112.667 35.3333C112.722 35.2779 112.778 34.2223 112.333 34.6667ZM133.667 36.3333C133.222 36.7778 134.278 36.7222 134.333 36.6667C134.778 36.222 133.722 36.2778 133.667 36.3333Z" fill="#EDA92C"/>
<path d="M120 70C135.199 92.044 169.394 94.634 187.826 74.96C197.879 64.23 200.786 50.1285 199 36C188.94 38.302 179.383 45.3838 170 49.6913C153.633 57.206 136.417 62.689 120 70Z" fill="#0A0B0B"/>
<path d="M199.333 38.6667C199.278 38.7223 199.222 39.7778 199.667 39.3333C199.722 39.278 199.778 38.2222 199.333 38.6667ZM364 123H369C370.763 113.916 375.802 109.784 380.095 102C384.187 94.582 385.342 84.229 383.295 76C381.382 68.313 376.415 61.575 370.985 56C365.679 50.5516 359.417 45.8224 358 38C352.571 40.7737 349.895 46.7079 347.248 52C340.152 66.192 338.175 84.955 347.133 99C351.075 105.18 359.417 108.056 362.682 114.105C364.136 116.799 363.975 120.039 364 123ZM111 40V49C112.256 46.0059 112.256 42.9941 111 40ZM141.333 41.6667C141.278 41.7224 141.222 42.7778 141.667 42.3333C141.722 42.278 141.778 41.2222 141.333 41.6667Z" fill="#0CAC08"/>
<path d="M356 44C356 59.071 361.681 70.654 365 85C361.96 84.276 359.122 84.026 356 84C358.683 85.3 362.231 85.539 364.436 87.703C369.067 92.249 366.029 102.462 365 108C374.602 100.236 365.103 84.427 365.131 75C365.144 70.678 368.676 67 370 63C366.831 65.625 364.932 69.16 362 72C360.528 61.993 356.693 54.349 358 44H356Z" fill="#FEFEFF"/>
<path d="M133 50C134.58 49.3164 134.777 49.1952 136 48C133.908 48.4056 133.98 48.2167 133 50ZM199 48V51C199.696 49.4463 199.696 49.5537 199 48ZM112 53L113 54L112 53ZM198 55L199 56L198 55ZM113 57L114 58L113 57ZM197 58L198 59L197 58ZM114 60L115 61L114 60ZM196 61L197 62L196 61ZM115 62L116 63L115 62ZM195 63L196 64L195 63ZM194 65L195 66L194 65Z" fill="#EDA92C"/>
<path d="M270 81C272.353 81.695 274.51 82.139 277.002 81.888C281.477 81.437 286.489 77.927 286.623 73.005C286.794 66.737 279.999 66.758 276.329 69.804C274.91 70.981 273.827 72.471 272.88 74.039C271.542 76.254 270.712 78.535 270 81Z" fill="#FEFEFF"/>
<path d="M412 76.9999C416.98 74.4579 420.983 70.4989 426 67.9999C420.49 66.7279 414.946 72.9069 412 76.9999ZM425 118H430C429.999 129.384 427.048 140.534 422.573 151C416.233 165.827 408.746 178.312 413.428 195C415.16 201.173 417.569 207.198 422.184 211.816C424.72 214.353 430.209 216.437 431.071 220.184C431.716 222.99 429.783 226.257 429.326 229C428.193 235.803 428.31 244.533 433.34 249.786C442.667 259.527 461.577 255.311 467.558 243.999C473.011 233.685 471 220.236 471 209C470.315 210.248 470.251 210.548 470 212C468.855 208.231 469.207 202.545 466.272 199.6C463.096 196.411 457.708 197.929 456 193C450.657 191.78 446.22 187.343 445 182C442.458 182 442.793 181.479 443 179C437.778 177.789 436.156 169.642 437 165C432.033 165 435 153.536 435 150C434.221 151.769 434.088 153.036 434 155C431.553 146.722 432.996 136.605 433 128C433.001 124.848 432.27 120.213 435.318 118.179C443.25 112.886 452.658 120.563 460 112L461 116H481C484.061 116 488.031 115.405 490.787 117.028C494.258 119.072 496.089 123.933 499.042 126.715C503.803 131.199 506.687 134.263 507 141C508.891 139.946 510.913 137.796 513.036 137.326C517.836 136.264 519.394 142.55 518.292 146C516.604 151.286 511.671 155.41 508.699 160C503.089 168.667 498.366 180.477 499.091 191C499.912 202.916 515.64 215.808 508 228C509.457 226.896 509.897 226.457 511 225C517.782 233.191 522.48 241.507 533 245.532C550.918 252.387 568.764 238.647 569.25 220C569.573 207.589 561.848 198.524 559.545 187C558.834 183.444 560.317 180.452 560.791 177C561.456 172.155 560.426 167.387 558.37 163C553.316 152.22 543.254 144.199 539.247 133C537.165 127.182 537.597 120.988 536.536 115C534.622 104.195 529.219 92.7009 520.96 85.3009C516.214 81.0489 510.399 77.8669 504 77.1739C500.698 76.8159 497.255 77.4629 494 76.7609C487.086 75.2689 481.397 71.2079 474 71.0539C447.104 70.4939 425.003 91.4679 425 118ZM165.667 87.3329C165.222 87.7779 166.278 87.7219 166.333 87.6669C166.778 87.2219 165.722 87.2779 165.667 87.3329ZM150 87.9999C153.163 89.3269 156.586 88.9999 160 88.9999C156.837 87.6729 153.414 87.9999 150 87.9999Z" fill="#BB371A"/>
<path d="M433 118V155C436.004 147.841 434 136.744 434 129C434 125.298 434.441 121.435 433 118Z" fill="#0A0B0B"/>
<path d="M440 127L441 128L440 127Z" fill="#EDA92C"/>
<path d="M437 129C440.918 130.629 450.444 130.511 453 127C447.392 127 442.247 126.786 437 129Z" fill="#0A0B0B"/>
<path d="M470 127L469 129C470.263 128.029 470.392 128.306 470 127Z" fill="#0A0B0B"/>
<path d="M470 130L488 131C484.89 126.598 473.106 125.209 470 130Z" fill="#0A0B0B"/>
<path d="M478.667 127.333C478.222 127.778 479.278 127.722 479.333 127.667C479.778 127.222 478.722 127.278 478.667 127.333ZM437 128L438 129L437 128ZM486 128L487 129L486 128ZM444 129C446.332 129.985 448.457 129.981 451 130C448.668 129.015 446.543 129.019 444 129ZM452 129L453 130L452 129ZM45 134L46 135L45 134Z" fill="#0A0B0B"/>
<path d="M46 134.464C6.50001 141.446 -9.46238 191.017 18.0903 219.985C29.6102 232.097 47.5784 237.491 64 234.535C70.1167 233.435 76.7798 228.769 83 229.318C90.664 229.994 96.07 240.782 104 239.458C106.311 239.073 108.216 237.505 109.816 235.891C114.297 231.369 123.716 220.942 121.242 214.004C118.606 206.61 108.6 205.101 105.742 197.961C102.601 190.111 106.308 180.24 103.96 172C96.769 146.766 72.3974 129.798 46 134.464Z" fill="#0A0B0B"/>
<path d="M63.6667 134.333C63.2223 134.778 64.2778 134.722 64.3333 134.667C64.7778 134.222 63.7223 134.278 63.6667 134.333ZM41 135L42 136L41 135ZM49 135C52.6975 136.552 57.0168 136 61 136C57.3025 134.448 52.9832 135 49 135ZM68 135L69 136L68 135ZM43 136L44 137L43 136Z" fill="#EDA92C"/>
<path d="M73 216C76.0472 209.572 78.5736 207.221 76 200C84.016 201.814 84.116 196.199 90 193C89.578 200.121 94.201 205.504 99.999 209.408C103.18 211.55 108.159 210.884 107.887 205.995C107.681 202.312 103.789 199.777 103.268 196C102.602 191.172 104.257 185.955 103.91 181C103.024 168.342 96.593 155.517 86.999 147.301C59.4233 123.682 14.3173 138.14 6.66896 174C0.178164 204.432 22.7257 231.664 53 233.816C62.1658 234.467 70.5303 230.636 79 227.958C83.1189 226.656 89.304 230.921 92.408 228.342C95.853 225.479 92.576 221.924 89.98 220.105C84.489 216.258 79.5015 214.124 73 216Z" fill="#FEFEFF"/>
<path d="M65 136L66 137L65 136ZM71 136L72 137L71 136ZM35 137L36 138L35 137ZM40 137L41 138L40 137ZM69 137L70 138L69 137ZM479 137C477.814 138.186 477.472 138.584 477 140C478.548 138.738 478.808 138.806 479 137ZM37 138L38 139L37 138ZM72 138L73 139L72 138ZM76 138L77 139L76 138ZM447 138C448.139 139.015 448.612 139.309 450 140C448.777 138.805 448.58 138.684 447 138Z" fill="#0A0B0B"/>
<path d="M477 142C480.547 142.547 481.547 141.547 481 138C478.751 139.154 478.154 139.751 477 142Z" fill="#0A0B0B"/>
<path d="M74 139L75 140L74 139ZM78 139L79 140L78 139Z" fill="#EDA92C"/>
<path d="M447 139C446.438 140.801 446.176 142.122 446 144C449.036 143 449.494 142.137 449 139H447Z" fill="#0A0B0B"/>
<path d="M29 140L30 141L29 140ZM32 140L33 141L32 140ZM76 140L77 141L76 140ZM27 141L28 142L27 141ZM78 141L79 142L78 141ZM445.333 141.667C445.278 141.722 445.222 142.778 445.667 142.333C445.722 142.278 445.778 141.222 445.333 141.667ZM80 142L81 143L80 142ZM83 142L84 143L83 142ZM511 145C512.923 144.098 512.999 143.924 514 142C512.077 142.902 512.001 143.076 511 145ZM27 143L28 144L27 143ZM449 143L450 144L449 143Z" fill="#0A0B0B"/>
<path d="M460 143V146C460.696 144.446 460.696 144.554 460 143Z" fill="#0A0B0B"/>
<path d="M23 144L24 145L23 144ZM83 144L84 145L83 144ZM84 145L85 146L84 145Z" fill="#EDA92C"/>
<path d="M511 145V147H513V145H511Z" fill="#0A0B0B"/>
<path d="M23 146L24 147L23 146ZM88 146L89 147L88 146ZM459 146L460 150C460.683 148.494 460.826 147.685 461 146H459ZM22 147L23 148L22 147ZM89 147L90 148L89 147ZM90 148L91 149L90 148ZM278 148L279 149L278 148Z" fill="#0A0B0B"/>
<path d="M251 194C253.831 189.501 254.971 183.918 257.012 179C260.406 170.819 264.982 162.507 271.174 156.09C273.312 153.875 277.357 149.67 280.853 150.596C285.165 151.739 286.295 163.297 285.227 166.83C283.836 171.433 277.4 175.45 274.286 179C266.504 187.871 257.327 198.472 254 210C257.541 206.246 259.661 201.302 262.516 197C270.478 185.006 280.63 173.869 292 165.015C295.321 162.43 302.074 157.113 306.566 160.042C310.835 162.826 309.987 175.393 310 180C312.209 174.737 312.673 158.63 304.981 157.492C298.493 156.531 291.96 162.761 287 166C286.867 159.574 286.973 145.39 277.001 149.308C275.578 149.867 274.267 150.899 273.09 151.848C271.186 153.383 269.515 155.191 267.924 157.039C259.717 166.572 252.107 181.317 251 194Z" fill="#0A0B0B"/>
<path d="M91 149L92 150L91 149ZM280.667 149.333C280.222 149.778 281.278 149.722 281.333 149.667C281.778 149.222 280.722 149.278 280.667 149.333ZM284 149L285 150L284 149Z" fill="#EDA92C"/>
<path d="M459 149C456.152 153.392 456.041 156.491 461 159C459.288 155.331 459.547 152.772 459 149Z" fill="#0A0B0B"/>
<path d="M92 150L93 151L92 150ZM104 150C108.906 158.848 113.18 166.692 114 177C117.331 169.043 111.333 154.023 104 150ZM277 150L278 151L277 150Z" fill="#EDA92C"/>
<path d="M248 223C250.667 218.762 251.939 213.578 254.029 209C256.79 202.95 260.409 197.375 264.295 192C269.919 184.22 279.757 177.431 283.972 169C285.89 165.165 286.187 153.898 282.272 151.043C276.338 146.715 267.2 160.139 264.699 164C253.445 181.375 248 202.483 248 223Z" fill="#FEFEFF"/>
<path d="M93 151L94 152L93 151ZM222 151L221 153C222.263 152.029 222.392 152.306 222 151Z" fill="#EDA92C"/>
<path d="M222 175C217.356 169.958 213.144 164.018 207 160.653C203.593 158.787 198.976 158.334 198.148 163.034C197.866 164.635 198.006 166.384 198 168C198.834 166.09 198.956 163.081 200.603 161.657C205.287 157.609 214.229 169.057 216.816 172C224.727 181.003 230.055 192.522 233.255 204C234.735 209.309 234.761 219.434 239 223C236.935 215.02 235.803 206.865 233.255 199C230.794 191.407 225.556 184.605 223.498 177C221.505 169.633 222 160.602 222 153C230.067 154.245 234.839 162.202 238.241 169C246.78 186.066 247 204.352 247 223C248.455 219.533 247.853 215.716 248.285 212C250.007 197.208 245.827 178.997 238.688 166C236.325 161.697 230.368 150.458 224.148 151.832C221.356 152.448 221.12 155.694 221.019 158.001C220.768 163.763 221.55 169.292 222 175Z" fill="#0A0B0B"/>
<path d="M226 151L227 152L226 151ZM273 151L274 152L273 151ZM283 151L284 152L283 151ZM285 151L286 152L285 151ZM17 152L18 153L17 152ZM272 152L273 153L272 152ZM456 152L457 153L456 152ZM458 152L459 153L458 152ZM14 153L15 154L14 153ZM16 153L17 154L16 153Z" fill="#0A0B0B"/>
<path d="M222 153C222 160.593 221.618 169.616 223.418 177C224.929 183.196 229.428 189.021 231.796 195C235.389 204.069 237.152 213.469 239 223H246C246 204.41 246.887 186.279 238.68 169C235.31 161.906 230.488 153.64 222 153Z" fill="#FEFEFF"/>
<path d="M273 153L274 154L273 153ZM220 154V160C220.951 157.715 220.951 156.285 220 154ZM272 154L273 155L272 154ZM94 155L95 156L94 155ZM96 155L97 156L96 155ZM269 155L270 156L269 155ZM271 155L272 156L271 155ZM458 155L459 156L458 155ZM268 156L269 157L268 156ZM270 156L271 157L270 156ZM459 156L460 157L459 156ZM13 157L14 158L13 157ZM267 157L268 158L267 157ZM269 157L270 158L269 157ZM286 157V160C286.696 158.446 286.696 158.554 286 157ZM302 157L303 158L302 157Z" fill="#0A0B0B"/>
<path d="M434 157C434.064 160.078 434.438 162.975 435 166C436.231 162.845 435.57 159.953 434 157Z" fill="#0A0B0B"/>
<path d="M96 158L97 159L96 158ZM98 158L99 159L98 158ZM200 158C201.506 158.683 202.315 158.826 204 159C202.494 158.317 201.685 158.174 200 158ZM308 158L309 159L308 158ZM10 159L11 160L10 159ZM12 159L13 160L12 159ZM205 159L206 160L205 159ZM234 159L235 160L234 159Z" fill="#EDA92C"/>
<path d="M250 223C257.66 221.454 262.591 214.211 268 209.039C275.333 202.028 283.571 196.257 292 190.667C296.562 187.642 304.887 184.981 307.972 180.39C310.292 176.939 310.256 163.641 307.258 160.604C301.518 154.789 289.954 166.193 286 169.579C269.316 183.868 256.784 202.15 250 223Z" fill="#FEFEFF"/>
<path d="M307 159L308 160L307 159ZM309 159L310 160L309 159ZM99 160L100 161L99 160Z" fill="#EDA92C"/>
<path d="M237 223C236.23 205.347 228.176 185.759 217.331 172C214.76 168.739 205.815 157.438 200.603 161.072C197.126 163.497 200.246 176.597 201.6 179.91C203.378 184.264 208.567 187.11 211.83 190.285C218.421 196.699 223.812 204.055 228.385 212C230.889 216.35 231.864 221.393 237 223Z" fill="#FEFEFF"/>
<path d="M204 160L205 161L204 160ZM233 160L234 161L233 160ZM295 160L296 161L295 160ZM298 160L299 161L298 160ZM9 161L10 162L9 161ZM208 161L209 162L208 161ZM264 161L265 162L264 161ZM266 161L267 162L266 161ZM293 161L294 162L293 161ZM296 161L297 162L296 161ZM308 161L309 162L308 161ZM310 161V165C310.71 163.24 310.71 162.76 310 161ZM98 162L99 163L98 162ZM100 162L101 163L100 162ZM120 162C121.151 164.987 122.261 167.882 123 171C124.417 167.332 123.232 164.144 120 162ZM197.333 162.667C197.278 162.722 197.222 163.778 197.667 163.333C197.722 163.278 197.778 162.222 197.333 162.667ZM207 162L208 163L207 162ZM209 162L210 163L209 162ZM236 162L237 163L236 162ZM8 163L9 164L8 163ZM235 163L236 164L235 163ZM293 163L294 164L293 163ZM99 164L100 165L99 164ZM101 164L102 165L101 164ZM264 164L265 165L264 164ZM285 164V169C285.83 166.97 285.83 166.03 285 164ZM7 165L8 166L7 165ZM9 165L10 166L9 165ZM222.333 165.667C222.278 165.722 222.222 166.778 222.667 166.333C222.722 166.278 222.778 165.222 222.333 165.667ZM238 165L239 166L238 165ZM288 165L289 166L288 165ZM471.667 165.333C471.222 165.778 472.278 165.722 472.333 165.667C472.778 165.222 471.722 165.278 471.667 165.333ZM100 166L101 167L100 166ZM261 166L262 167L261 166Z" fill="#0A0B0B"/>
<path d="M436 166C436.458 171.208 438.391 175.513 441 180C441.713 175.719 438.304 169.644 436 166ZM463 168C466.379 169.209 469.615 167.951 473 167C469.651 165.838 466.428 167.42 463 168Z" fill="#0A0B0B"/>
<path d="M8 167L9 168L8 167ZM102 167L103 168L102 167ZM239 167L240 168L239 167ZM262 167L263 168L262 167ZM288 167L289 168L288 167ZM464 167C465.248 167.685 465.548 167.749 467 168C465.752 167.315 465.452 167.251 464 167ZM471 167L472 168L471 167ZM6 168L7 169L6 168ZM198 168V170C199.635 169.455 199.455 169.635 200 168H198ZM287 168L288 169L287 168ZM437 168L438 169L437 168ZM467.667 168.333C467.222 168.778 468.278 168.722 468.333 168.667C468.778 168.222 467.722 168.278 467.667 168.333ZM101 169L102 170L101 169Z" fill="#0A0B0B"/>
<path d="M199 169V174C199.83 171.97 199.83 171.03 199 169Z" fill="#0A0B0B"/>
<path d="M240 169L241 170L240 169ZM261 169L262 170L261 169ZM286 169L287 170L286 169ZM7 170L8 171L7 170ZM103 170L104 171L103 170ZM221 170V175C221.83 172.969 221.83 172.031 221 170ZM5 171L6 172L5 171ZM178 171L177 172L178 174L180 173C179.455 171.365 179.635 171.545 178 171Z" fill="#EDA92C"/>
<path d="M179 171C184.348 173.638 189.889 175.412 195 178.698C211.015 188.994 222.256 203.326 231 220C231.698 215.812 228.525 211.513 226.385 208C222.109 200.979 216.869 194.749 211 189.015C207.112 185.216 202.527 182.394 201 177C200.315 178.249 200.251 178.548 200 180C193.511 175.72 186.939 171.364 179 171Z" fill="#0A0B0B"/>
<path d="M184 171L185 172L184 171ZM218 171L219 172L218 171ZM241 171L242 172L241 171ZM260 171L261 172L260 171ZM309 171C308.998 173.457 309.396 176.478 308.397 178.79C306.209 183.852 297.387 186.497 293 189.345C283.046 195.807 273.465 202.639 265 211.004C259.57 216.369 255.085 222.557 247 223V199C244.194 205.687 246 215.767 246 223C239.751 223 231.862 223.443 230 216C223.917 214.2 218.869 205.467 214 201.3C208.39 196.499 201.758 192.32 195 189.334C189.801 187.037 183.851 186.368 180 182C176.857 183.039 168.915 181.837 167.132 184.603C166.1 186.204 167.034 188.381 167.504 190.001C168.758 194.325 169.945 198.66 171.139 203C175.871 220.202 178.962 237.933 184.174 255C189.401 272.112 192.401 289.775 197.139 307C199.032 313.884 199.715 322.269 204.394 327.957C211.218 336.254 225.202 338.815 234 345.043C240.095 349.358 245.417 359.67 253 360.852C257.695 361.583 264.685 361.724 268.985 359.544C272.307 357.86 274.233 354.53 278 354C279.236 348.587 283.886 344.953 288 341.428C296.274 334.339 305.06 327.94 314 321.721C317.171 319.515 326.718 315.83 327.694 311.832C328.666 307.846 322.546 303.505 320 301.289C312.574 294.826 297.358 287.277 298 276C295.736 275.304 293.41 274.187 291 274.218C286.419 274.276 283.479 277.09 281 272C279.805 273.223 279.684 273.42 279 275H277C274.5 264.201 268.455 252.42 271.318 241C272.448 236.492 276.834 233.134 280 230.004C289.166 220.943 300.087 212.133 312 207V224C312.005 226.217 311.544 229.391 313.028 231.262C314.566 233.201 317.824 233.326 320 234.104C324.035 235.547 327.292 237.732 330 241C332.054 236.619 331.022 231.722 331.001 227C330.949 215.305 329.727 203.743 330.015 192C330.132 187.206 333.068 179.269 328.682 175.604C323.775 171.504 314.474 177.454 310 180C309.998 176.874 310.213 173.89 309 171ZM438 171L439 172L438 171Z" fill="#EDA92C"/>
<path d="M178 172L179 173L178 172Z" fill="#0A0B0B"/>
<path d="M229 217C224.043 201.335 209.461 187.718 196 179.09C193.024 177.183 181.948 169.424 179.198 174.333C177.466 177.425 179.465 183.028 182.228 184.84C185.015 186.667 188.907 187.281 192 188.508C196.926 190.463 201.579 193.172 206 196.079C214.866 201.908 220.886 210.458 229 217Z" fill="#FEFEFF"/>
<path d="M183 172L184 173L183 172ZM217 172L218 173L217 172ZM219 172L220 173L219 172Z" fill="#EDA92C"/>
<path d="M177 173V177C177.71 175.24 177.71 174.759 177 173Z" fill="#0A0B0B"/>
<path d="M185 173L186 174L185 173ZM200 173C199.598 174.944 199.598 175.056 200 177C200.71 175.24 200.71 174.76 200 173ZM218 173L219 174L218 173ZM240 173L241 174L240 173ZM259 173L260 174L259 173ZM6.00005 174L7.00005 175L6.00005 174ZM187 174L188 175L187 174ZM190 174L191 175L190 174ZM189 175L190 176L189 175ZM192 175L193 176L192 175ZM258 175L259 176L258 175ZM4.33335 176.667C4.27795 176.722 4.22225 177.778 4.66675 177.333C4.72235 177.278 4.77775 176.222 4.33335 176.667ZM178 176C177.014 177.478 177 177.203 177 179C178.766 178.021 178.955 177.778 178 176ZM191 176L192 177L191 176ZM194 176L195 177L194 176ZM220 176L221 177L220 176ZM243 176L244 177L243 176ZM256 176L257 177L256 176ZM193 177L194 178L193 177ZM257 177L258 178L257 177ZM197 178L198 179L197 178ZM223 178L224 179L223 178ZM242.333 178.667C242.278 178.722 242.222 179.778 242.667 179.333C242.722 179.278 242.778 178.222 242.333 178.667ZM255 178L256 179L255 178Z" fill="#EDA92C"/>
<path d="M178 179V182C178.696 180.446 178.696 180.554 178 179Z" fill="#0A0B0B"/>
<path d="M196 179L197 180L196 179ZM222 179L223 180L222 179ZM244 179L245 180L244 179ZM105 180V190C106.346 186.793 106.346 183.207 105 180Z" fill="#EDA92C"/>
<path d="M442 180C442.684 181.58 442.805 181.777 444 183C443.316 181.42 443.195 181.223 442 180Z" fill="#0A0B0B"/>
<path d="M199 181L200 182L199 181ZM225 181L226 182L225 181ZM254 181L255 182L254 181ZM272 181L273 182L272 181ZM5 182V188C5.9511 185.715 5.9511 184.285 5 182ZM200 182L201 183L200 182ZM224 182L225 183L224 182ZM243 182L244 183L243 182ZM245 182V185C245.696 183.446 245.696 183.554 245 182ZM255 182L256 183L255 182ZM271 182L272 183L271 182ZM273 182L274 183L273 182ZM204 183L205 184L204 183ZM226 183L227 184L226 183ZM272 183L273 184L272 183Z" fill="#EDA92C"/>
<path d="M444 183C446.285 187.901 450.099 191.715 455 194C451.964 189.69 448.31 186.036 444 183Z" fill="#0A0B0B"/>
<path d="M203 184L204 185L203 184ZM225 184L226 185L225 184ZM271 184L272 185L271 184ZM204 185L205 186L204 185ZM227 185L228 186L227 185ZM244 185V188C244.696 186.446 244.696 186.554 244 185ZM254 185L255 186L254 185ZM226 186L227 187L226 186ZM228 187L229 188L228 187ZM246.333 187.667C246.278 187.722 246.222 188.778 246.667 188.333C246.722 188.278 246.778 187.222 246.333 187.667ZM267 187L268 188L267 187ZM227 188L228 189L227 188ZM253 188L254 189L253 188ZM266 188L267 189L266 188ZM268 188L269 189L268 188ZM211 189L212 190L211 189ZM229 189L230 190L229 189ZM267 189L268 190L267 189ZM210 190L211 191L210 190ZM212 190L213 191L212 190ZM228 190L229 191L228 190ZM4.33335 191.667C4.27795 191.722 4.22225 192.778 4.66675 192.333C4.72235 192.278 4.77785 191.222 4.33335 191.667ZM211 191L212 192L211 191ZM213 191L214 192L213 191ZM230 191L231 192L230 191ZM252 191L253 192L252 191ZM264 191L265 192L264 191ZM212 192L213 193L212 192ZM485 192L486 193L485 192Z" fill="#EDA92C"/>
<path d="M486 192C475.018 197.787 466.51 197.141 455 194C458.124 197.118 462.454 196.878 465.57 199.6C468.875 202.486 468.917 207.977 469 212C470.854 207.573 469.201 202.669 469 198C473.681 198 477.612 197.317 482 195.611C484.063 194.809 486.873 194.193 486 192Z" fill="#0A0B0B"/>
<path d="M76 200C76.5213 202.249 77.7232 204.677 77.2994 207.025C76.7053 210.316 73.9409 212.785 73 216C83.396 214.405 87.807 222.626 97 224C94.051 220.899 90.684 218.292 87 216.093C84.838 214.803 81.4399 213.886 80.1173 211.583C79.0255 209.682 79.7662 207.035 80 205C86.162 210.366 92.662 216.345 100 220C96.201 212.951 86.882 208.414 81 203C83.8273 202.059 85.673 200.877 88 199C91.08 205.016 97.685 213.423 105 213C98.945 207.129 89.88 202.366 90 193C83.8592 195.01 83.8275 201.199 76 200ZM229 193L230 194L229 193ZM250 193V195H252C251.455 193.365 251.635 193.545 250 193ZM483 193L484 194L483 193ZM6 194L7 195L6 194ZM231 194L232 195L231 194ZM262 194L263 195L262 194ZM480 194L481 195L480 194ZM484 194L485 195L484 194ZM230 195L231 196L230 195ZM247.333 195.667C247.278 195.722 247.222 196.778 247.667 196.333C247.722 196.278 247.778 195.222 247.333 195.667Z" fill="#EDA92C"/>
<path d="M250 195L249 202C250.466 199.55 250.965 197.706 250 195Z" fill="#0A0B0B"/>
<path d="M261 195L262 196L261 195ZM459 195L460 196L459 195ZM477 195L478 196L477 195ZM482 195L483 196L482 195ZM232 196L233 197L232 196ZM262 196L263 197L262 196ZM474 196L475 197L474 196ZM479 196L480 197L479 196ZM5 197L6 198L5 197ZM249 197L250 198L249 197ZM476 197L477 198L476 197ZM7 198L8 199L7 198ZM103 198L104 199L103 198ZM105 198L106 199L105 198ZM219 198L220 199L219 198ZM231 198L232 199L231 198ZM259 198L260 199L259 198ZM469 198C470.248 198.685 470.548 198.749 472 199C470.752 198.315 470.452 198.251 469 198Z" fill="#EDA92C"/>
<path d="M87 199C85.019 200.639 83.2887 201.85 81 203C85.675 209.108 93.653 215.563 101 218C101.472 216.584 101.814 216.186 103 215C98.496 209.419 92.417 203.73 87 199Z" fill="#FEFEFF"/>
<path d="M218 199L219 200L218 199ZM220 199L221 200L220 199ZM233 199L234 200L233 199ZM250 199L251 200L250 199ZM6 200L7 201L6 200ZM104 200L105 201L104 200ZM106 200L107 201L106 200ZM258 200L259 201L258 200ZM8 201L9 202L8 201ZM105 201L106 202L105 201ZM107 201L108 202L107 201ZM232 201L233 202L232 201ZM248 201V204L250 203C249.455 201.365 249.635 201.545 248 201ZM259 201L260 202L259 201ZM469 201V204C469.696 202.446 469.696 202.554 469 201ZM222 202L223 203L222 202ZM234.333 202.667C234.278 202.722 234.222 203.778 234.667 203.333C234.722 203.278 234.778 202.222 234.333 202.667ZM7 203L8 204L7 203ZM107 203L108 204L107 203ZM221 203L222 204L221 203ZM223 203L224 204L223 203ZM108 204L109 205L108 204ZM111 204L112 205L111 204ZM233.333 204.667C233.278 204.722 233.222 205.778 233.667 205.333C233.722 205.278 233.778 204.222 233.333 204.667ZM8 205L9 206L8 205Z" fill="#EDA92C"/>
<path d="M80 205C79.6336 207.006 78.7837 209.597 79.6427 211.583C80.6623 213.941 83.9624 214.871 86.001 216.093C90.166 218.592 95.555 225.009 99 219C92.312 214.821 86.688 209.179 80 205Z" fill="#FEFEFF"/>
<path d="M109 205L110 206L109 205ZM255 205L256 206L255 205ZM10 206L11 207L10 206ZM235 206L236 207L235 206ZM256 206L257 207L256 206ZM115 207L116 208L115 207ZM254 207L255 208L254 207Z" fill="#EDA92C"/>
<path d="M107 208L108 209L107 208ZM226 208L227 209L226 208ZM10 209L11 210L10 209ZM225 209L226 210L225 209ZM236 209V212C236.696 210.446 236.696 210.554 236 209ZM119 210L120 211L119 210ZM253.667 210.333C253.222 210.778 254.278 210.722 254.333 210.667C254.778 210.222 253.722 210.278 253.667 210.333ZM11 211L12 212L11 211ZM13 211L14 212L13 211ZM120 211L121 212L120 211ZM226 211L227 212L226 211Z" fill="#EDA92C"/>
<path d="M253 211C251.272 214.881 249.721 218.808 249 223C251.373 219.828 253.694 214.961 253 211Z" fill="#0A0B0B"/>
<path d="M235.333 212.667C235.278 212.722 235.222 213.778 235.667 213.333C235.722 213.278 235.778 212.222 235.333 212.667ZM96 232C102.006 227.111 106.915 219.56 111 213C104.489 216.307 98.791 225.366 96 232ZM121 213L122 214L121 213ZM229 213L230 214L229 213ZM13 214L14 215L13 214ZM15 214L16 215L15 214ZM251 214L252 215L251 214ZM14 215L15 216L14 215ZM16 215L17 216L16 215ZM102 215L103 216L102 215ZM230 215L231 216L230 215ZM237.333 215.667C237.278 215.722 237.222 216.778 237.667 216.333C237.722 216.278 237.778 215.222 237.333 215.667ZM252 215L253 216L252 215ZM101 216L102 217L101 216Z" fill="#EDA92C"/>
<path d="M229.333 217.667C229.278 217.722 229.222 218.778 229.667 218.333C229.722 218.278 229.778 217.222 229.333 217.667Z" fill="#FEFEFF"/>
<path d="M250 217L251 218L250 217ZM251 218L252 219L251 218ZM121 219L122 220L121 219ZM238.333 220.667C238.278 220.722 238.222 221.778 238.667 221.333C238.722 221.278 238.778 220.222 238.333 220.667ZM120 221L121 222L120 221ZM250 221L251 222L250 221Z" fill="#EDA92C"/>
<path d="M569 221C568.121 225.516 567.206 230.009 564.786 234C563.006 236.935 560.6 239.561 557.996 241.786C540.355 256.859 522.111 238.905 512 225C499.576 232.763 483.924 245.142 472 229C468.201 237.445 468.605 245.322 459.999 251.15C450.3 257.718 435.096 255.62 430.228 244C427.928 238.508 428.948 231.665 430 226C411.208 232.841 394.609 248.568 379 260.65C373.475 264.927 368.28 269.872 362 273C360.47 261.156 356.066 249.431 346.961 241.301C344.111 238.757 339.978 235.307 336.019 234.867C329.346 234.124 331.047 242.108 334 245C332.417 240.513 332.643 234.549 339.001 238.167C343.754 240.872 348.163 245.707 351.471 250C358.099 258.603 358.949 268.956 361.913 279C363.872 285.641 367.415 292.384 371.429 298C384.219 315.897 403.645 328.358 421 341.373C433.204 350.526 444.62 361.279 457 370C455.978 367.937 453.939 365.374 453.922 362.998C453.898 359.703 457.794 355.067 461.286 355.67C466.681 356.601 472.681 361.623 477 364.745C488.798 373.274 497.65 384.162 504.363 397C506.975 401.996 510.294 408.265 510.64 414C511.183 422.994 496.746 428.189 490 430.988C466.832 440.602 440.919 440.299 418 430.138C386.076 415.984 365.43 386.759 351.309 356C344.684 341.57 339.926 325.516 331.532 312C322.806 297.949 305.167 292.063 298 277C296.812 281.347 300.125 284.965 303.043 287.985C309.456 294.622 317.491 299.414 323.985 306.004C334.998 317.177 339.628 333.894 345.86 348C350.361 358.187 356.924 368.323 360 379C336.683 385.377 309.927 396.852 290.3 374.961C284.444 368.43 281.062 360.618 277 353C275.284 359.259 282.774 369.248 286.518 374C304.465 396.778 339.107 392.065 362 380C369.263 395.353 382.538 409.167 396 419.255C401.096 423.074 406.372 426.528 412 429.515C414.183 430.673 417.665 431.652 418.593 434.225C419.655 437.167 417.062 441.337 416 444C412.835 451.94 409.936 459.991 406.95 468C400.229 486.028 394.725 504.473 389.576 523C386.693 533.372 382.879 544.238 382 555C385.116 550.041 385.713 543.628 387.127 538C389.483 528.617 392.181 519.248 395.025 510C400.308 492.818 406.08 475.823 412.425 459C415.559 450.691 419.656 442.571 422 434C437.779 439.133 454.497 441.505 471 438.535C479.735 436.964 488.323 431.954 497 431.105C529.764 427.898 565.256 431.757 594 413C596.727 418.739 601.068 423.429 604.1 429C607.912 436.006 610.603 444.277 612.525 452C621.037 486.217 614 520.527 614 555C616.874 551.206 615.736 546.554 616.17 542C617.123 531.979 617.403 522.025 618.089 512C619.69 488.622 619.118 463.4 611.305 441C609.171 434.882 606.587 428.561 603.24 423C601.282 419.747 598.003 416.651 596.843 413C595.218 407.882 600.223 401.626 599.66 396C598.527 384.655 592.006 374.567 591.184 363C590.21 349.284 596.319 335.057 599.626 322C603.496 306.716 604.651 291.747 603.961 276C603.052 255.288 590.038 227.704 569 221Z" fill="#0A0B0B"/>
<path d="M571 221L572 222L571 221ZM24 223L25 224L24 223ZM574 223L575 224L574 223ZM118 224L119 225L118 224ZM24 225L25 226L24 225ZM27 225L28 226L27 225ZM117 225L118 226L117 225ZM577 225L578 226L577 225Z" fill="#EDA92C"/>
<path d="M233 226C238.197 267.12 244.739 308.677 248 350C249.646 346.068 248.418 342.129 248.086 338C247.438 329.938 246.362 322.011 245.282 314C243.084 297.68 241.744 281.316 239.714 265C238.103 252.056 235.108 239.102 235 226H233Z" fill="#FEFEFF"/>
<path d="M27 227L28 228L27 227ZM30 227L31 228L30 227ZM79 227L80 228L79 227ZM85 227L86 228L85 227ZM93 227L94 228L93 227ZM426 227L427 228L426 227ZM32 228L33 229L32 228ZM87 228L88 229L87 228ZM115 228L116 229L115 228ZM424 228L425 229L424 228ZM34 229L35 230L34 229ZM114 229L115 230L114 229ZM422 229L423 230L422 229ZM582 229L583 230L582 229ZM72 230L73 231L72 230ZM76 230L77 231L76 230ZM87 230L88 231L87 230ZM90 230L91 231L90 230ZM472 230L473 231L472 230ZM504 230L505 231L504 230ZM583 230L584 231L583 230ZM0 231C3.4483 250.333 28.8959 263.642 47 264.91C53.4326 265.361 59.9533 262.33 66 262.885C69.5684 263.212 72.4316 266.046 76 266.645C79.9209 267.303 83.2208 265.547 87 265.089C94.694 264.155 104.935 273.143 111 264C104.932 265.923 96.737 267.679 91.487 262.671C87.844 259.195 90.27 255.024 84 254C84.167 257.252 84.886 259.946 86 263C78.7105 265.31 74.8026 264.072 68 261C69.3173 258.376 71.3944 255.203 70.2137 252.153C68.256 247.095 64.2159 251.563 64.1481 255C64.1086 257.004 64.6368 259.043 65 261C46.2947 264.859 27.5661 261.361 13.0008 247.907C7.497 242.823 4.6362 236.59 0 231ZM35 231L36 232L35 231ZM39 231L40 232L39 231ZM69 231L70 232L69 231ZM74 231L75 232L74 231ZM419 231L420 232L419 231ZM473 231L474 232L473 231ZM503 231L504 232L503 231ZM584 231L585 232L584 231ZM37 232L38 233L37 232ZM43 232L44 233L43 232ZM65.6667 232.333C65.2223 232.778 66.2778 232.722 66.3333 232.667C66.7779 232.222 65.7222 232.278 65.6667 232.333ZM71 232L72 233L71 232ZM90 232L91 233L90 232ZM112 232L113 233L112 232ZM474 232L475 233L474 232ZM501 232L502 233L501 232ZM585 232L586 233L585 232ZM47 233C48.506 233.683 49.3148 233.826 51 234C49.4939 233.317 48.6852 233.174 47 233ZM58 233C59.2483 233.685 59.5484 233.749 61 234C59.7516 233.315 59.4516 233.251 58 233ZM68 233L69 234L68 233Z" fill="#EDA92C"/>
<path d="M295 233C292.019 239.168 296.333 240.863 302 241C297.365 238.683 296.436 237.951 295 233Z" fill="#0A0B0B"/>
<path d="M296.333 233.667C296.278 233.722 296.222 234.778 296.667 234.333C296.722 234.278 296.778 233.222 296.333 233.667ZM475 233L476 234L475 233ZM43 234C44.2485 234.685 44.5483 234.749 46 235C44.7517 234.315 44.4515 234.251 43 234ZM333 234L334 235L333 234ZM336 234L337 235L336 234ZM414 234L415 235L414 234ZM54.6667 235.333C54.2223 235.778 55.2778 235.722 55.3333 235.667C55.7778 235.222 54.7222 235.278 54.6667 235.333ZM94 235L95 236L94 235ZM338 235L339 236L338 235ZM478 235L479 236L478 235ZM495 235L496 236L495 235ZM109 236L110 237L109 236ZM333 236L334 237L333 236ZM336 236L337 237L336 236ZM340 236L341 237L340 236ZM411 236L412 237L411 236ZM481 236L482 237L481 236ZM490 236C491.248 236.685 491.548 236.749 493 237C491.752 236.315 491.452 236.251 490 236ZM97 237L98 238L97 237ZM108 237L109 238L108 237ZM332 237L333 238L332 237ZM338 237L339 238L338 237ZM589 237L590 238L589 237ZM293 238L294 239L293 238ZM408 238L409 239L408 238ZM590 238L591 239L590 238ZM297 239C298.941 239.951 300.897 240.439 303 241C301.266 238.997 299.645 239.077 297 239ZM341 239L342 240L341 239ZM344 239L345 240L344 239ZM295 240L296 241L295 240ZM404 241L405 242L404 241ZM592 241L593 242L592 241Z" fill="#EDA92C"/>
<path d="M299 251V249H285C286.33 246.403 287.436 245.409 290 244C286.557 242.918 281.243 246.752 285.453 249.821C288.71 252.195 295.18 251 299 251Z" fill="#0A0B0B"/>
<path d="M333 243L334 244L333 243ZM288 244L289 245L288 244ZM400 244L401 245L400 244ZM594 244L595 245L594 244ZM286 245L287 246L286 245Z" fill="#EDA92C"/>
<path d="M334 245C334.545 246.635 334.365 246.455 336 247C335.455 245.365 335.635 245.545 334 245Z" fill="#0A0B0B"/>
<path d="M351 246L352 247L351 246ZM397 246L398 247L397 246ZM595 246L596 247L595 246ZM352 247L353 248L352 247ZM396 247L397 248L396 247ZM283 248L284 249L283 248ZM596 248L597 249L596 248ZM351 249L352 250L351 249ZM285 250L286 251L285 250ZM354 250L355 251L354 250ZM392 250L393 251L392 250ZM597 250L598 251L597 250Z" fill="#EDA92C"/>
<path d="M66 251C65.3249 253.659 65.4083 255.312 66 258H68C68.7639 255.255 68.7639 253.746 68 251H66Z" fill="#FEFEFF"/>
<path d="M353 252L354 253L353 252ZM388 253L389 254L388 253Z" fill="#EDA92C"/>
<path d="M295 259C292.597 260.475 289.872 262.934 287.005 263.339C282.815 263.93 281.608 260.38 283.056 257.16C283.5 256.171 284.468 254.862 285 254C275.979 258.55 282.497 268.258 290.941 263.687C293.069 262.535 293.95 261.047 295 259Z" fill="#0A0B0B"/>
<path d="M354 254L355 255L354 254ZM281 255L282 256L281 255ZM284 255L285 256L284 255ZM599 255L600 256L599 255Z" fill="#EDA92C"/>
<path d="M86 256L87 261C87.791 258.693 87.475 257.935 86 256Z" fill="#FEFEFF"/>
<path d="M355 256L356 257L355 256ZM384 256L385 257L384 256ZM383 257L384 258L383 257ZM279 258V262C279.71 260.24 279.71 259.76 279 258ZM356 258L357 259L356 258ZM358 258L359 259L358 258ZM407 258C397.869 277.52 397.333 299.898 400 321H402C401.479 308.878 399.223 298.203 401.424 286C402.44 280.37 403.294 274.527 404.756 269C405.721 265.353 407.788 261.753 407 258ZM600 258L601 259L600 258ZM379 260L380 261L379 260ZM518 260C506.022 280.523 495.838 301.045 479.834 319C474.696 324.764 469.658 330.64 464 335.91C456.965 342.464 448.849 348.385 446 358C451.827 354.465 455.979 346.843 461 342.039C478.344 325.449 493.504 307.544 506.089 287C509.627 281.224 512.875 275.215 515.576 269C516.855 266.055 518.532 263.18 518 260ZM291 261L292 262L291 261ZM357 261L358 262L357 261ZM359 261L360 262L359 261ZM601 261L602 262L601 261ZM287.667 263.333C287.222 263.778 288.278 263.722 288.333 263.667C288.778 263.222 287.722 263.278 287.667 263.333ZM291 263L292 264L291 263ZM375 263L376 264L375 263ZM358 264L359 265L358 264ZM374 264L375 265L374 264ZM283 265C284.769 265.779 286.036 265.912 288 266C286.231 265.221 284.964 265.088 283 265ZM602 265L603 266L602 265ZM370 267L371 268L370 267ZM361.333 268.667C361.278 268.722 361.222 269.778 361.667 269.333C361.722 269.278 361.778 268.222 361.333 268.667ZM369 268L370 269L369 268Z" fill="#EDA92C"/>
<path d="M279 269V273C279.71 271.24 279.71 270.759 279 269Z" fill="#0A0B0B"/>
<path d="M365 271L366 272L365 271ZM288 272L289 273L288 272Z" fill="#EDA92C"/>
<path d="M281 274C285.142 277.013 291.791 274.418 297 276C293.05 269.923 286.96 273.48 281 274Z" fill="#0A0B0B"/>
<path d="M285 273L286 274L285 273ZM360 273L361 274L360 273ZM296 274L297 275L296 274ZM361.333 277.667C361.278 277.722 361.222 278.778 361.667 278.333C361.722 278.278 361.778 277.222 361.333 277.667ZM298 278L299 279L298 278ZM299 280L300 281L299 280ZM604 281V294C605.591 290.209 605.591 284.791 604 281ZM301 283L302 284L301 283ZM363 283L364 284L363 283ZM302 284L303 285L302 284ZM303 285L304 286L303 285ZM364 285L365 286L364 285ZM365 287L366 288L365 287ZM306 288L307 289L306 288ZM307 289L308 290L307 289ZM366 289L367 290L366 289ZM308 290L309 291L308 290ZM312 293L313 294L312 293ZM368 293L369 294L368 293ZM316 296L317 297L316 296ZM370 296L371 297L370 296ZM317 297L318 298L317 297ZM321 300L322 301L321 300ZM373 300L374 301L373 300ZM322 301L323 302L322 301ZM323 302L324 303L323 302ZM324 303L325 304L324 303ZM325 304L326 305L325 304ZM326 305L327 306L326 305ZM327 306L328 307L327 306ZM378 306L379 307L378 306ZM578 306C577.798 314.607 571.548 319.924 569.804 328C568.7 333.111 572.31 338.028 569.82 342.996C567.051 348.523 560.14 350.771 558.434 357C555.191 368.836 560.946 380.508 551.787 390.985C547.031 396.426 540.764 397.216 535.004 400.969C529.517 404.544 525.907 410.514 521 414.815C516.586 418.684 510.815 420.549 507 425C520.561 421.779 525.593 411.252 536.015 403.638C544.275 397.603 553.873 396.82 558.045 386C561.578 376.836 556.598 364.136 561.742 356.015C564.626 351.462 570.262 349.203 572.258 343.999C574.516 338.11 570.694 331.896 573.075 326C575.636 319.656 583.178 312.842 578 306ZM328 307L329 308L328 307ZM379 307L380 308L379 307ZM380 308L381 309L380 308ZM602 308V311C602.696 309.446 602.696 309.554 602 308ZM381 309L382 310L381 309ZM330 310L331 311L330 310ZM382 310L383 311L382 310ZM383 311L384 312L383 311Z" fill="#EDA92C"/>
<path d="M384 312L385 313L384 312ZM330 313L331 314L330 313Z" fill="#EDA92C"/>
<path d="M326 314C326.978 318.127 328.643 321.988 330 326C330.871 321.85 328.596 317.216 326 314Z" fill="#0A0B0B"/>
<path d="M601 314L602 315L601 314ZM327 315L328 316L327 315ZM331 315L332 316L331 315ZM333 315L334 316L333 315ZM326 316L327 317L326 316ZM328 317L329 318L328 317ZM332 317L333 318L332 317ZM334 317L335 318L334 317ZM391 318L392 319L391 318ZM600 318L601 319L600 318ZM333 319L334 320L333 319ZM392 319L393 320L392 319ZM329 320L330 321L329 320ZM328 321L329 322L328 321ZM334 321L335 322L334 321ZM599 322L600 323L599 322ZM330 323L331 324L330 323ZM397 323L398 324L397 323ZM329 324L330 325L329 324ZM330 326L331 327L330 326ZM336 326L337 327L336 326ZM338 326L339 327L338 326ZM401 326L402 327L401 326ZM598 326L599 327L598 326ZM402 327L403 328L402 327ZM337 328L338 329L337 328ZM339 328L340 329L339 328ZM405 329L406 330L405 329ZM597 329L598 330L597 329ZM406 330L407 331L406 330ZM340 331L341 332L340 331ZM409 332L410 333L409 332ZM339 333L340 334L339 333ZM341 333L342 334L341 333ZM410 333L411 334L410 333ZM596 333L597 334L596 333ZM340 335L341 336L340 335ZM413 335L414 336L413 335ZM414 336L415 337L414 336ZM595.333 336.667C595.278 336.722 595.222 337.778 595.667 337.333C595.722 337.278 595.778 336.222 595.333 336.667ZM341 337L342 338L341 337ZM343 338L344 339L343 338ZM417 338L418 339L417 338ZM418 339L419 340L418 339ZM344 340L345 341L344 340ZM594 340L595 341L594 340ZM421 341L422 342L421 341ZM343 342L344 343L343 342ZM345 342L346 343L345 342ZM422 342L423 343L422 342ZM344 344L345 345L344 344ZM425 344L426 345L425 344ZM593 344L594 345L593 344ZM426 345L427 346L426 345ZM347 347L348 348L347 347ZM429 347L430 348L429 347ZM430 348L431 349L430 348ZM346 349L347 350L346 349ZM348 349L349 350L348 349ZM592.333 349.667C592.278 349.722 592.222 350.778 592.667 350.333C592.722 350.278 592.778 349.222 592.333 349.667ZM433 350L434 351L433 350ZM347 351L348 352L347 351ZM434 351L435 352L434 351ZM348 353L349 354L348 353Z" fill="#EDA92C"/>
<path d="M249 354L250 355L249 354Z" fill="#FEFEFF"/>
<path d="M350 354L351 355L350 354ZM438 354L439 355L438 354ZM459 354L460 355L459 354ZM458 355L459 356L458 355ZM461 355L462 356L461 355ZM276 356L277 357L276 356ZM351 356L352 357L351 356ZM457 356L458 357L457 356ZM463 356L464 357L463 356ZM442 357L443 358L442 357ZM456 357L457 358L456 357ZM465 357L466 358L465 357ZM591 357V366C592.256 363.006 592.256 359.994 591 357ZM277 358L278 359L277 358ZM279 358L280 359L279 358ZM350 358L351 359L350 358ZM352 358L353 359L352 358ZM455 358L456 359L455 358ZM467 358L468 359L467 358ZM469 359L470 360L469 359ZM278 360L279 361L278 360ZM280 360L281 361L280 360ZM351 360L352 361L351 360ZM353 360L354 361L353 360ZM446 360L447 361L446 360ZM472 361L473 362L472 361ZM279 362L280 363L279 362ZM281 362L282 363L281 362ZM352 362L353 363L352 362ZM452 363L453 364L452 363ZM280 364L281 365L280 364ZM353 364L354 365L353 364ZM478 365L479 366L478 365ZM281 366L282 367L281 366ZM354 366L355 367L354 366ZM284 367L285 368L284 367ZM355 368L356 369L355 368ZM456 368L457 369L456 368ZM283 369L284 370L283 369ZM483 369L484 370L483 369ZM286 370L287 371L286 370ZM356 370L357 371L356 370ZM484 370L485 371L484 370ZM485 371L486 372L485 371ZM285 372L286 373L285 372ZM357 372L358 373L357 372ZM359 372L360 373L359 372ZM486 372L487 373L486 372ZM592 372L593 373L592 372ZM289 374L290 375L289 374ZM358 374L359 375L358 374ZM360 374L361 375L360 374ZM290 375L291 376L290 375ZM593 375L594 376L593 375ZM288 376L289 377L288 376ZM291 376L292 377L291 376ZM361 376L362 377L361 376ZM289 377L290 378L289 377ZM292 377L293 378L292 377ZM491 377L492 378L491 377ZM290 378L291 379L290 378ZM293 378L294 379L293 378ZM492 378L493 379L492 378ZM594 378L595 379L594 378ZM357 379L358 380L357 379ZM355 380L356 381L355 380ZM361 380L362 381L361 380ZM297 381L298 382L297 381ZM352 381L353 382L352 381ZM364 381L365 382L364 381ZM595 381L596 382L595 381ZM295 382L296 383L295 382ZM299 382L300 383L299 382ZM350 382L351 383L350 382ZM356 382L357 383L356 382ZM301 383L302 384L301 383ZM353 383L354 384L353 383ZM496 383L497 384L496 383ZM298 384L299 385L298 384ZM303 384L304 385L303 384ZM343 384L344 385L343 384ZM364 384L365 385L364 384ZM366 384L367 385L366 384ZM596 384L597 385L596 384ZM300 385L301 386L300 385ZM340 385L341 386L340 385ZM348 385L349 386L348 385ZM302 386L303 387L302 386ZM309 386L310 387L309 386ZM334 386C335.248 386.685 335.548 386.749 337 387C335.752 386.315 335.452 386.251 334 386ZM345 386L346 387L345 386ZM498 386L499 387L498 386ZM305 387L306 388L305 387ZM313.667 387.333C313.222 387.778 314.278 387.722 314.333 387.667C314.778 387.222 313.722 387.278 313.667 387.333ZM330.667 387.333C330.222 387.778 331.278 387.722 331.333 387.667C331.778 387.222 330.722 387.278 330.667 387.333ZM341 387L342 388L341 387ZM366 387L367 388L366 387ZM368 387L369 388L368 387ZM597 387L598 388L597 387ZM308.667 388.333C308.222 388.778 309.278 388.722 309.333 388.667C309.778 388.222 308.722 388.278 308.667 388.333ZM337 388L338 389L337 388ZM312.667 389.333C312.222 389.778 313.278 389.722 313.333 389.667C313.778 389.222 312.722 389.278 312.667 389.333ZM330 389C331.248 389.685 331.548 389.749 333 390C331.752 389.315 331.452 389.251 330 389ZM500 389L501 390L500 389ZM368 390L369 391L368 390ZM370 390L371 391L370 390ZM598 390L599 391L598 390ZM372 393L373 394L372 393ZM599.333 393.667C599.278 393.722 599.222 394.778 599.667 394.333C599.722 394.278 599.778 393.222 599.333 393.667ZM371 394L372 395L371 394ZM373 394L374 395L373 394ZM505 398L506 399L505 398ZM375 399L376 400L375 399ZM377 399L378 400L377 399ZM376 400L377 401L376 400ZM378 400L379 401L378 400ZM599 400V403C599.696 401.446 599.696 401.554 599 400ZM507 403L508 404L507 403ZM598 405L599 406L598 405ZM508 406L509 407L508 406ZM597 407L598 408L597 407ZM509 408L510 409L509 408ZM388 410L389 411L388 410ZM595 410L596 411L595 410ZM389 411L390 412L389 411ZM390 412L391 413L390 412ZM510 412L511 413L510 412ZM592 413L593 414L592 413ZM596 413L597 414L596 413ZM390 414L391 415L390 414ZM591 414L592 415L591 414ZM594 414L595 415L594 414ZM391 415L392 416L391 415ZM395 416L396 417L395 416ZM598 416L599 417L598 416ZM596 417L597 418L596 417ZM585 418L586 419L585 418ZM396 419L397 420L396 419ZM399 419L400 420L399 419ZM583 419L584 420L583 419ZM581 420L582 421L581 420ZM601 420L602 421L601 420ZM399 421L400 422L399 421ZM599 421L600 422L599 421ZM506 422L507 423L506 422ZM575 422L576 423L575 422ZM405 423L406 424L405 423ZM572 423L573 424L572 423ZM603 423L604 424L603 423ZM403 424L404 425L403 424ZM568 424L569 425L568 424ZM601 424L602 425L601 424ZM501 425L502 426L501 425ZM410 426L411 427L410 426ZM499 426L500 427L499 426ZM556.667 426.333C556.222 426.778 557.278 426.722 557.333 426.667C557.778 426.222 556.722 426.278 556.667 426.333ZM408 427L409 428L408 427ZM412 427L413 428L412 427ZM547 427C548.506 427.683 549.315 427.826 551 428C549.494 427.317 548.685 427.174 547 427ZM603 427L604 428L603 427ZM605 427L606 428L605 427ZM410 428L411 429L410 428ZM414 428L415 429L414 428ZM538.667 428.333C538.222 428.778 539.278 428.722 539.333 428.667C539.778 428.222 538.722 428.278 538.667 428.333ZM416 429L417 430L416 429ZM493 429L494 430L493 429ZM525 429C527.052 429.874 528.747 429.953 531 430C528.948 429.126 527.253 429.047 525 429ZM604 429L605 430L604 429ZM606 429L607 430L606 429ZM418 430L419 431L418 430ZM491 430L492 431L491 430ZM511 430C512.769 430.779 514.036 430.912 516 431C514.231 430.221 512.964 430.088 511 430ZM416 431L417 432L416 431ZM493 431L494 432L493 431ZM605 431L606 432L605 431ZM607 431L608 432L607 431ZM418 432L419 433L418 432ZM423 432L424 433L423 432ZM486 432L487 433L486 432ZM491 432L492 433L491 432ZM426 433L427 434L426 433ZM483 433L484 434L483 433ZM486 434C488.565 435.109 491.565 435.123 493.941 436.742C499.284 440.384 497.485 445.409 492 447C491.634 453.682 486.124 462.249 480 455C472.178 457.133 472.987 449.459 474 444C466.606 451.893 476.754 462.746 485.996 460.15C491.264 458.67 493.5 452.849 494 448C499.648 446.362 501.774 440.727 496.852 436.43C493.719 433.695 489.894 433.596 486 434ZM551 443C543.758 444.506 540.823 455.577 547.228 460.383C551.118 463.302 561.015 464.77 564.867 461.566C567.28 459.559 567.917 456.631 569.839 454.313C571.362 452.476 573.822 452.117 575.397 450.416C577.933 447.678 577.232 442.109 575.543 439.109C573.647 435.739 570.427 435.307 567 434.421C559.072 432.374 551.728 433.348 551 443ZM608 433L609 434L608 433ZM422.667 434.333C422.222 434.778 423.278 434.722 423.333 434.667C423.778 434.222 422.722 434.278 422.667 434.333ZM429 434L430 435L429 434ZM479.667 434.333C479.222 434.778 480.278 434.722 480.333 434.667C480.778 434.222 479.722 434.278 479.667 434.333Z" fill="#EDA92C"/>
<path d="M553 445C547.176 445.945 541.914 451.897 546.742 457.678C548.625 459.932 551.421 459.528 554 460.16C556.002 460.651 557.881 461.76 559.996 461.709C566.406 461.556 567.771 453.991 568 449C578.524 452.919 576.989 438.404 568 437V442C566.058 439.896 565.875 438.881 566 436C557.76 433.02 553.104 436.205 553 445Z" fill="#FEFEFF"/>
<path d="M419 435L420 436L419 435ZM426 435L427 436L426 435ZM433 435L434 436L433 435ZM474 435C475.248 435.685 475.548 435.749 477 436C475.752 435.315 475.452 435.251 474 435ZM483 435C484.248 435.685 484.548 435.749 486 436C484.752 435.315 484.452 435.251 483 435ZM421 436L422 437L421 436ZM429 436L430 437L429 436ZM436 436C437.506 436.683 438.315 436.826 440 437C438.494 436.317 437.685 436.174 436 436ZM470 436C471.248 436.685 471.548 436.749 473 437C471.752 436.315 471.452 436.251 470 436ZM478 436C479.506 436.683 480.315 436.826 482 437C480.494 436.317 479.685 436.174 478 436ZM607 436L608 437L607 436ZM609 436L610 437L609 436ZM432 437C433.248 437.685 433.548 437.749 435 438C433.752 437.315 433.452 437.251 432 437ZM444 437C445.248 437.685 445.548 437.749 447 438C445.752 437.315 445.452 437.251 444 437ZM464 437L465 438L464 437ZM420 438L421 439L420 438ZM437 438L436 445L430 441C427.381 444.082 425.976 445.085 422 444C424.551 447.917 427.942 446.729 430 443C436.341 447.527 442.709 440.888 450 440C445.654 438.244 441.538 440.208 437 438ZM610 438L611 439L610 438Z" fill="#EDA92C"/>
<path d="M439 439C441.01 440.474 441.522 440.465 444 440C442.231 439.221 440.964 439.088 439 439Z" fill="#FEFEFF"/>
<path d="M459 439C460.769 439.779 462.036 439.912 464 440C462.231 439.221 460.964 439.088 459 439ZM608 439L609 440L608 439ZM417 440L418 441L417 440ZM419 441L420 442L419 441ZM476 441L475 443H477C477 441.147 477.3 441.65 476 441ZM605 441C601.979 447.287 602.271 458.758 610 461C606.315 456.223 606.463 454.294 609 449L605 450V441ZM611 441L612 442L611 441ZM418 443L419 444L418 443ZM474 443L475 444L474 443ZM610.333 444.667C610.278 444.722 610.222 445.778 610.667 445.333C610.722 445.278 610.778 444.222 610.333 444.667ZM612 444L613 445L612 444ZM415 445L416 446L415 445ZM417 446L418 447L417 446ZM416 448L417 449L416 448ZM611 448L612 449L611 448ZM613 448L614 449L613 448ZM413 450L414 451L413 450ZM415 451L416 452L415 451ZM612.333 451.667C612.278 451.722 612.222 452.778 612.667 452.333C612.722 452.278 612.778 451.222 612.333 451.667ZM614 451L615 452L614 451ZM412 453L413 454L412 453ZM414 453L415 454L414 453ZM413 456L414 457L413 456ZM613 456L614 457L613 456ZM615.333 456.667C615.278 456.722 615.222 457.778 615.667 457.333C615.722 457.278 615.778 456.222 615.333 456.667ZM410 458L411 459L410 458ZM412 458L413 459L412 458ZM616.333 460.667C616.278 460.722 616.222 461.778 616.667 461.333C616.722 461.278 616.778 460.222 616.333 460.667ZM409 461L410 462L409 461ZM411 461L412 462L411 461ZM614 463L615 464L614 463ZM410 464L411 465L410 464ZM407 466L408 467L407 466ZM617 468V471C617.696 469.446 617.696 469.554 617 468ZM406 469L407 470L406 469ZM408 469L409 470L408 469ZM433 473C425.69 469.124 422.176 473.721 422 481C423.997 476.985 425.955 470.37 431 475C433.734 473.793 437.637 470.19 440.772 471.407C443.003 472.273 443.657 474.901 444.59 476.834C448.062 484.034 447.025 488.823 439 492C439.768 493.314 439.686 493.232 441 494C436.414 500.353 424.086 504.084 423 493L419 494C418.742 490.086 420.108 486.778 421 483C409.398 494.626 430.72 508.763 440.432 498.607C444.051 494.822 449.513 487.481 448.761 482.039C447.609 473.704 440.509 464.492 433 473ZM615.333 469.667C615.278 469.722 615.222 470.778 615.667 470.333C615.722 470.278 615.778 469.222 615.333 469.667ZM498 481C500.875 479.179 502.731 475.56 506.015 474.392C510.514 472.793 516.683 477.567 517.438 481.964C517.835 484.281 516.52 486.781 516 489C520.177 493.094 519.067 499.141 513.956 502.312C511.828 503.632 509.211 503.487 507 504.645C504.327 506.045 502.14 508.705 499.001 509.119C492.257 510.007 492.73 503.231 494 499C482.873 494.995 493.776 487.52 497 482C492.44 484.638 486.351 488.89 487.356 495C487.766 497.487 489.411 499.567 490.035 502C490.944 505.537 491.091 508.863 495.044 510.396C501.104 512.746 504.96 507.566 510 505.581C513.415 504.236 516.52 504.216 518.721 500.811C522.234 495.379 521.276 482.181 517.347 477.13C513.214 471.816 506.204 469.694 501.394 475.104C499.832 476.861 498.932 478.883 498 481ZM407 472L408 473L407 472ZM404 474L405 475L404 474ZM406 475L407 476L406 475ZM618 479V489C619.346 485.793 619.346 482.207 618 479ZM402 480L403 481L402 480ZM404 480L405 481L404 480ZM587 491C589.083 481.266 578.433 478.186 571.018 482.897C566.757 485.604 566.37 489.928 563.441 493.536C561.024 496.513 557.773 498.313 556.232 502.015C553.04 509.684 558.801 513.247 564.911 515.54C568.844 517.016 571.492 519.924 575.996 518.138C579.432 516.776 581.27 513.812 583.745 511.295C585.404 509.607 587.721 508.605 589.15 506.701C592.984 501.592 592.775 494.031 587 491ZM423.333 482.667C423.278 482.722 423.222 483.778 423.667 483.333C423.722 483.278 423.778 482.222 423.333 482.667ZM403 483L404 484L403 483Z" fill="#EDA92C"/>
<path d="M568 512C571.301 523.372 581.635 513.05 583 506L587 508C590.054 502.548 592.581 493.684 584 493C587.16 485.48 583.52 481.84 576 485C573.581 482.515 570.607 484.504 568.738 487.109C567.295 489.12 566.984 491.69 565.412 493.625C562.936 496.673 559.246 498.099 557.742 502.004C554.624 510.099 561.058 513.628 568 512Z" fill="#FEFEFF"/>
<path d="M402 486L403 487L402 486ZM399 489L400 490L399 489ZM401 489L402 490L401 489ZM398 492L399 493L398 492ZM400 492L401 493L400 492ZM397 495L398 496L397 495ZM399 495L400 496L399 495ZM398 498L399 499L398 498ZM396 499L397 500L396 499ZM397.333 501.667C397.278 501.722 397.222 502.778 397.667 502.333C397.722 502.278 397.778 501.222 397.333 501.667ZM395 502L396 503L395 502ZM616 506V513C617.059 510.466 617.059 508.534 616 506ZM395 508L396 509L395 508ZM618 508V515C619.06 512.466 619.06 510.534 618 508ZM393 509L394 510L393 509ZM394 511L395 512L394 511ZM392 512L393 513L392 512ZM391 515L392 516L391 515ZM393 515L394 516L393 515ZM447 538C443.953 535.215 440.109 532.644 440.323 528C440.635 521.213 448.183 515.506 452 523C459.965 519.644 461.973 524.449 462 532C465.133 532.781 467.105 534.549 465.199 537.986C463.218 541.558 459.439 543.259 456.039 545.119C450.038 548.401 445.037 552.076 441 544C437.217 545.558 430.972 546.166 431.461 539.997C431.664 537.441 433.688 535.087 435 533C425.339 537.766 429.579 549.229 440 547C444.68 554.416 452.295 549.577 458 546.397C460.91 544.775 464.092 543.637 466.106 540.812C468.885 536.915 468.759 531.58 464 530C463.792 521.415 460.486 520.937 453.424 518.607C449.415 517.285 447.059 515.401 443.189 518.573C436.203 524.301 437.993 536.143 447 538ZM392 518L393 519L392 518ZM390 519L391 520L390 519ZM389.333 522.667C389.278 522.722 389.222 523.778 389.667 523.333C389.722 523.278 389.778 522.222 389.333 522.667ZM391 522L392 523L391 522ZM390 525L391 526L390 525ZM388 526L389 527L388 526ZM525 541C523.455 540.229 521.733 539.103 519.991 538.832C513.382 537.802 513.786 547.771 513 552C516.907 548.587 513.792 539.303 521.959 541.635L526 543C526.088 539.359 529.481 526.669 535.486 530.752C538.225 532.614 538.277 538.065 539 541C541.222 540.19 542.99 539.261 545 538C545.615 541.151 545.375 543.827 545 547L548 545L549 546V548H547C547 549.797 547.014 549.521 548 551C551.979 545.651 546.886 535.873 540 539C539.59 535.775 539.526 530.799 536.683 528.647C529.592 523.281 525.114 536.266 525 541ZM617 527V532C617.83 529.97 617.83 529.03 617 527ZM615 528V531C615.696 529.446 615.696 529.554 615 528ZM387.333 529.667C387.278 529.722 387.222 530.778 387.667 530.333C387.722 530.278 387.778 529.222 387.333 529.667ZM393 532C399.45 533.857 399.425 535.646 397 542C398.942 544.104 399.125 545.119 399 548C401.918 549.66 401.931 550.854 401 554C406.77 550.583 401.595 546.802 400.533 541.985C399.221 536.029 402.011 529.42 393 532ZM388 532L389 533L388 532ZM589 547C591.53 543.971 595.07 534.499 599 541C603.996 537.837 605.362 533.983 612 535C609.182 531.776 605.563 533.524 602 534.742C599.786 535.498 597.194 535.143 595.104 536.137C591.141 538.023 589.521 543.021 589 547ZM386 534L387 535L386 534ZM387 536L388 537L387 536ZM385 538L386 539L385 538ZM616 539V546C617.06 543.466 617.06 541.534 616 539ZM386 540L387 541L386 540ZM385 544L386 545L385 544ZM383 546L384 547L383 546ZM382 550L383 551L382 550ZM383 552L384 553L383 552ZM615 554L616 555L615 554Z" fill="#EDA92C"/>
</svg>
